<svg width="400" height="400" viewBox="0 0 400 400" xmlns="http://www.w3.org/2000/svg">
  <defs>
    <linearGradient id="jungleGrad" x1="0%" y1="0%" x2="0%" y2="100%">
      <stop offset="0%" style="stop-color:#2E7D32;stop-opacity:1" />
      <stop offset="100%" style="stop-color:#1B5E20;stop-opacity:1" />
    </linearGradient>
    <linearGradient id="bananaGrad" x1="0%" y1="0%" x2="0%" y2="100%">
      <stop offset="0%" style="stop-color:#FFD600;stop-opacity:1" />
      <stop offset="100%" style="stop-color:#FFAB00;stop-opacity:1" />
    </linearGradient>
  </defs>
  
  <!-- Background -->
  <rect width="400" height="400" fill="url(#jungleGrad)" />
  
  <!-- Leaves -->
  <path d="M0,0 C50,100 0,200 100,200 C50,100 150,0 0,0" fill="rgba(255,255,255,0.05)" transform="translate(300, 0)" />
  <path d="M0,0 C50,100 0,200 100,200 C50,100 150,0 0,0" fill="rgba(255,255,255,0.05)" transform="translate(250, 50) rotate(30)" />
  
  <!-- Vines -->
  <path d="M0,0 Q50,100 0,200 T0,400" fill="none" stroke="#33691E" stroke-width="8" />
  <path d="M400,0 Q350,150 400,300" fill="none" stroke="#33691E" stroke-width="6" />
  
  <!-- Swinging Nano Banana -->
  <g transform="translate(180, 120) rotate(10)">
    <!-- Banana Body -->
    <path d="M-30,0 C-30,-50 30,-50 30,0 C30,50 -30,50 -30,0" fill="url(#bananaGrad)" transform="rotate(-10)" />
    <!-- Happy Face -->
    <circle cx="-10" cy="-10" r="3" fill="#212121" />
    <circle cx="10" cy="-10" r="3" fill="#212121" />
    <path d="M-10,5 Q0,15 10,5" fill="none" stroke="#212121" stroke-width="2" />
    <!-- Hands holding vine -->
    <rect x="-40" y="-30" width="10" height="20" rx="5" fill="#FFAB00" />
    <path d="M-35,-80 L-35,-20" fill="none" stroke="#558B2F" stroke-width="4" />
  </g>
  
  <text x="50%" y="360" text-anchor="middle" fill="rgba(255,255,255,0.2)" font-family="Arial" font-weight="900" font-size="24">JUNGLE GYM</text>
</svg>
